<svg width="17" height="17" viewBox="0 0 17 17" fill="none" xmlns="http://www.w3.org/2000/svg">
<path d="M12.3473 1.6267C12.546 1.42801 12.7819 1.2704 13.0415 1.16287C13.3011 1.05534 13.5793 1 13.8603 1C14.1413 1 14.4195 1.05534 14.6791 1.16287C14.9387 1.2704 15.1746 1.42801 15.3733 1.6267C15.572 1.82538 15.7296 2.06126 15.8371 2.32086C15.9447 2.58045 16 2.85869 16 3.13968C16 3.42066 15.9447 3.6989 15.8371 3.95849C15.7296 4.21809 15.572 4.45397 15.3733 4.65266L5.56249 14.4635C5.29919 14.7268 4.97173 14.9168 4.61249 15.0148V15.0148C3.01523 15.4504 1.54961 13.9848 1.98523 12.3875V12.3875C2.0832 12.0283 2.27323 11.7008 2.53653 11.4375L12.3473 1.6267Z" stroke="#B1B6BE" stroke-width="2" stroke-linecap="round" stroke-linejoin="round"/>
</svg>
