<svg width="16" height="17" viewBox="0 0 16 17" fill="none" xmlns="http://www.w3.org/2000/svg">
<path d="M1 4H2.55556H15" stroke="#B1B6BE" stroke-width="2" stroke-linecap="round" stroke-linejoin="round"/>
<path d="M5.14286 4V2.5C5.14286 2.10218 5.29337 1.72064 5.56128 1.43934C5.82919 1.15804 6.19255 1 6.57143 1H9.42857C9.80745 1 10.1708 1.15804 10.4387 1.43934C10.7066 1.72064 10.8571 2.10218 10.8571 2.5V4M13 14.5V9C13 6.23858 10.7614 4 8 4V4C5.23858 4 3 6.23858 3 9V14.5C3 14.8978 3.15051 15.2794 3.41842 15.5607C3.68633 15.842 4.04969 16 4.42857 16H11.5714C11.9503 16 12.3137 15.842 12.5816 15.5607C12.8495 15.2794 13 14.8978 13 14.5Z" stroke="#B1B6BE" stroke-width="2" stroke-linecap="round" stroke-linejoin="round"/>
</svg>
